<svg width="1600" height="900" viewBox="0 0 1600 900" fill="none" xmlns="http://www.w3.org/2000/svg">
  <rect width="1600" height="900" fill="#0F172A"/>
  <rect x="80" y="70" width="1440" height="760" rx="28" fill="#111C34" stroke="#2A3A63"/>
  <text x="140" y="170" fill="#E3ECFF" font-family="Arial, sans-serif" font-size="46">Churn Retention Optimizer</text>
  <rect x="140" y="230" width="560" height="200" rx="18" fill="#14284D" stroke="#365793"/>
  <rect x="760" y="230" width="700" height="200" rx="18" fill="#14284D" stroke="#365793"/>
  <rect x="140" y="470" width="1320" height="280" rx="18" fill="#12203D" stroke="#30466F"/>
  <path d="M200 660C280 620 360 610 440 570C520 530 600 550 680 500C760 450 840 450 920 400C1000 350 1080 360 1160 330C1240 300 1320 270 1400 260" stroke="#6EE7FF" stroke-width="10" stroke-linecap="round"/>
  <text x="170" y="290" fill="#A9C4FF" font-family="Arial, sans-serif" font-size="30">High risk users</text>
  <text x="790" y="290" fill="#A9C4FF" font-family="Arial, sans-serif" font-size="30">Intervention campaigns</text>
  <text x="170" y="535" fill="#BFD2FF" font-family="Arial, sans-serif" font-size="30">Forecast trend and recovery scenarios</text>
</svg>
